# xmcd
#
# Track frame offsets:
#	150
#	17888
#	31503
#	47376
#	66748
#
# Disc length: 1177 seconds
# Revision: 1
# Processed by: cddbd v1.5.2PL0 Copyright (c) Steve Scherf et al.
# Submitted via: dBpowerAMP V12.0
#
DISCID=38049705
DTITLE=Various Artist - Gypsy Soul
DYEAR=2010
DGENRE=Country
TTITLE0=Sierra Noble - I Can See
TTITLE1=Sierra Noble - Possibility
TTITLE2=Sierra Noble - Sincerely, Your Gypsy Soul
TTITLE3=Sierra Noble and Michael Logen - Human After All
TTITLE4=Sierra Noble - Warriors Lament (Instrumental)
EXTD=
EXTT0=
EXTT1=
EXTT2=
EXTT3=
EXTT4=
PLAYORDER=
